<svg height="20" viewBox="0 0 20 20" width="20" xmlns="http://www.w3.org/2000/svg"><path fill='#0099ff' d="m5 15c-.128 0-.256-.049-.354-.146l-4-4c-.195-.195-.195-.512 0-.707l4-4c.195-.195.512-.195.707 0s.195.512 0 .707l-3.646 3.646 3.646 3.646c.195.195.195.512 0 .707-.098.098-.226.146-.354.146z"/><path fill='#0099ff' d="m15 15c-.128 0-.256-.049-.354-.146-.195-.195-.195-.512 0-.707l3.646-3.646-3.646-3.646c-.195-.195-.195-.512 0-.707s.512-.195.707 0l4 4c.195.195.195.512 0 .707l-4 4c-.098.098-.226.146-.354.146z"/><path fill='#0099ff' d="m7.5 15c-.091 0-.182-.025-.265-.076-.234-.146-.305-.455-.159-.689l5-8c.146-.234.455-.305.689-.159s.305.455.159.689l-5 8c-.095.152-.258.235-.424.235z"/></svg>