<svg xmlns:xlink="http://www.w3.org/1999/xlink" width="20" height="20" version="1.1" viewBox="0 0 20 20"><path fill="#000" d="M17.5 9h-15c-0.827 0-1.5-0.673-1.5-1.5v-6c0-0.276 0.224-0.5 0.5-0.5s0.5 0.224 0.5 0.5v6c0 0.276 0.224 0.5 0.5 0.5h15c0.276 0 0.5-0.224 0.5-0.5v-6c0-0.276 0.224-0.5 0.5-0.5s0.5 0.224 0.5 0.5v6c0 0.827-0.673 1.5-1.5 1.5z"/><path fill="#000" d="M1.5 11h-1c-0.276 0-0.5-0.224-0.5-0.5s0.224-0.5 0.5-0.5h1c0.276 0 0.5 0.224 0.5 0.5s-0.224 0.5-0.5 0.5z"/><path fill="#000" d="M4.5 11h-1c-0.276 0-0.5-0.224-0.5-0.5s0.224-0.5 0.5-0.5h1c0.276 0 0.5 0.224 0.5 0.5s-0.224 0.5-0.5 0.5z"/><path fill="#000" d="M7.5 11h-1c-0.276 0-0.5-0.224-0.5-0.5s0.224-0.5 0.5-0.5h1c0.276 0 0.5 0.224 0.5 0.5s-0.224 0.5-0.5 0.5z"/><path fill="#000" d="M10.5 11h-1c-0.276 0-0.5-0.224-0.5-0.5s0.224-0.5 0.5-0.5h1c0.276 0 0.5 0.224 0.5 0.5s-0.224 0.5-0.5 0.5z"/><path fill="#000" d="M13.5 11h-1c-0.276 0-0.5-0.224-0.5-0.5s0.224-0.5 0.5-0.5h1c0.276 0 0.5 0.224 0.5 0.5s-0.224 0.5-0.5 0.5z"/><path fill="#000" d="M16.5 11h-1c-0.276 0-0.5-0.224-0.5-0.5s0.224-0.5 0.5-0.5h1c0.276 0 0.5 0.224 0.5 0.5s-0.224 0.5-0.5 0.5z"/><path fill="#000" d="M19.5 11h-1c-0.276 0-0.5-0.224-0.5-0.5s0.224-0.5 0.5-0.5h1c0.276 0 0.5 0.224 0.5 0.5s-0.224 0.5-0.5 0.5z"/><path fill="#000" d="M18.5 20c-0.276 0-0.5-0.224-0.5-0.5v-6c0-0.276-0.224-0.5-0.5-0.5h-15c-0.276 0-0.5 0.224-0.5 0.5v6c0 0.276-0.224 0.5-0.5 0.5s-0.5-0.224-0.5-0.5v-6c0-0.827 0.673-1.5 1.5-1.5h15c0.827 0 1.5 0.673 1.5 1.5v6c0 0.276-0.224 0.5-0.5 0.5z"/></svg>