<svg height="20" viewBox="0 0 20 20" width="20" xmlns="http://www.w3.org/2000/svg"><path d="m15.5 8c-.827 0-1.5-.673-1.5-1.5s.673-1.5 1.5-1.5 1.5.673 1.5 1.5-.673 1.5-1.5 1.5zm0-2c-.276 0-.5.224-.5.5s.224.5.5.5.5-.224.5-.5-.224-.5-.5-.5z"/><path d="m17.5 3h-3.5c-.688 0-1.574.367-2.061.854l-7.586 7.586c-.283.283-.438.659-.438 1.061s.156.778.438 1.061l2.602 2.602-1.095.632c-.115.066-.249.083-.379.049s-.238-.117-.304-.232l-3.596-6.229c-.138-.239-.056-.545.183-.683l7.986-4.611c.239-.138.321-.444.183-.683s-.444-.321-.683-.183l-7.986 4.611c-.346.2-.594.523-.698.911s-.051.792.149 1.138l3.596 6.229c.2.346.523.594.911.698.13.035.262.052.392.052.26 0 .515-.068.746-.201l1.327-.766.752.752c.283.283.659.438 1.061.438s.778-.156 1.061-.438l7.586-7.586c.487-.487.853-1.372.853-2.061v-3.5c0-.827-.673-1.5-1.5-1.5zm.5 5c0 .415-.267 1.06-.561 1.354l-7.586 7.586c-.094.094-.219.145-.354.145s-.26-.052-.354-.145l-4.086-4.086c-.094-.094-.145-.219-.145-.353s.052-.26.145-.354l7.586-7.586c.293-.293.939-.561 1.353-.561h3.5c.276 0 .5.224.5.5v3.5z"/></svg>