<svg xmlns="http://www.w3.org/2000/svg" width="360" height="360" preserveAspectRatio="xMidYMid meet" version="1.0" viewBox="0 0 270 270"><metadata>Created by potrace 1.11, written by Peter Selinger 2001-2013</metadata><g fill="#000" stroke="none"><path d="M1095 2371 c-33 -10 -80 -30 -105 -45 -58 -37 -661 -637 -700 -696 -57 -88 -78 -194 -59 -298 21 -114 48 -148 393 -491 176 -176 333 -329 347 -340 59 -46 129 -65 234 -65 93 -1 105 2 166 31 105 51 182 140 224 258 17 45 13 172 -7 230 -30 89 -60 128 -225 293 -84 85 -153 157 -153 160 0 3 74 80 164 171 169 172 200 214 222 310 70 297 -207 563 -501 482z" transform="translate(0.000000,270.000000) scale(0.100000,-0.100000)"/><path d="M1872 1938 c-47 -16 -116 -80 -134 -127 -19 -48 -18 -133 4 -181 8 -19 57 -77 108 -128 l93 -92 -89 -94 c-106 -111 -107 -113 -121 -152 -31 -90 8 -204 88 -260 38 -26 50 -29 123 -29 103 0 101 -1 329 226 185 185 206 214 212 298 5 84 -22 124 -224 326 -101 101 -199 191 -219 201 -44 21 -125 26 -170 12z" transform="translate(0.000000,270.000000) scale(0.100000,-0.100000)"/></g></svg>