<?xml version="1.0" standalone="no"?>
<!DOCTYPE svg PUBLIC "-//W3C//DTD SVG 20010904//EN"
 "http://www.w3.org/TR/2001/REC-SVG-20010904/DTD/svg10.dtd">
<svg version="1.0" xmlns="http://www.w3.org/2000/svg"
 width="700.000000pt" height="700.000000pt" viewBox="0 0 700.000000 700.000000"
 preserveAspectRatio="xMidYMid meet">
<metadata>
Created by potrace 1.11, written by Peter Selinger 2001-2013
</metadata>
<g transform="translate(0.000000,700.000000) scale(0.100000,-0.100000)"
fill="#000000" stroke="none">
<path d="M1675 4880 c-26 -13 -300 -280 -762 -743 -650 -650 -722 -726 -729
-762 -11 -55 -7 -89 15 -133 29 -56 1437 -1457 1483 -1477 147 -60 295 95 223
235 -9 19 -306 323 -658 676 -352 352 -640 644 -640 649 0 4 290 298 645 654
355 355 649 655 653 666 21 53 24 88 8 133 -19 56 -39 79 -90 103 -54 24 -98
24 -148 -1z"/>
<path d="M4315 4889 c-16 -7 -42 -23 -57 -37 -21 -20 -118 -165 -173 -260 -5
-9 -374 -600 -820 -1312 l-810 -1295 0 -62 c0 -54 4 -66 31 -100 84 -104 208
-95 293 21 23 30 41 57 41 59 0 3 60 101 134 218 74 118 223 356 331 529 108
173 287 460 398 637 111 178 283 452 381 610 99 159 198 317 221 353 41 64
156 247 178 284 7 11 28 45 47 75 29 48 35 65 35 116 0 69 -15 98 -69 140 -39
30 -114 41 -161 24z"/>
<path d="M5188 4886 c-57 -20 -105 -81 -110 -137 -7 -98 -40 -61 668 -769
l654 -655 -636 -635 c-349 -349 -647 -653 -661 -674 -67 -103 1 -246 126 -263
87 -12 68 -29 829 731 393 391 725 729 739 750 31 48 34 115 8 166 -27 52
-1445 1467 -1489 1485 -43 18 -79 18 -128 1z"/>
</g>
</svg>
