<svg xmlns="http://www.w3.org/2000/svg" xmlns:xlink="http://www.w3.org/1999/xlink" fill="#09f" version="1.1" viewBox="0 0 1046 1024"><path d="M326.857143 799.428571 298.285714 828q-5.714286 5.714286-13.142857 5.714286T272 828l-266.285714-266.285714q-5.714286-5.714286-5.714286-13.142857t5.714286-13.142857l266.285714-266.285714q5.714286-5.714286 13.142857-5.714286t13.142857 5.714286l28.571429 28.571429q5.714286 5.714286 5.714286 13.142857t-5.714286 13.142857l-224.571429 224.571429 224.571429 224.571429q5.714286 5.714286 5.714286 13.142857t-5.714286 13.142857zm337.714286-609.714286-213.142857 737.714286q-2.285714 7.428571-8.857143 11.142857t-13.428571 1.428571l-35.428571-9.714286q-7.428571-2.285714-11.142857-8.857143t-1.428571-14l213.142857-737.714286q2.285714-7.428571 8.857143-11.142857t13.428571-1.428571l35.428571 9.714286q7.428571 2.285714 11.142857 8.857143t1.428571 14zm375.428571 372-266.285714 266.285714Q768 833.714285 760.571429 833.714285t-13.142857-5.714286l-28.571429-28.571429q-5.714286-5.714286-5.714286-13.142857t5.714286-13.142857l224.571429-224.571429-224.571429-224.571429q-5.714286-5.714286-5.714286-13.142857t5.714286-13.142857l28.571429-28.571429q5.714286-5.714286 13.142857-5.714286t13.142857 5.714286l266.285714 266.285714q5.714286 5.714286 5.714286 13.142857T1040 561.714283z"/></svg>